  <svg xmlns="http://www.w3.org/2000/svg" viewBox="0 0 512 512">
    <circle cx="256" cy="256" r="246" fill="rgba(255, 255, 255, 0.8)" />
    <path
      transform="rotate(0 256 256)"
      d="M227.885 58.993c-3.216 3.216-5.887 7.121-7.783 11.734L94.467 411.727c-14.355 39.484 34.102 69.995 62.817 41.28l98.715-98.715 98.715 98.715c16.841 16.841 40.483 13.311 54.248-.455 9.708-9.708 14.506-24.495 8.569-40.825l-125.635-341.012C281.225 44.812 245.978 40.901 227.885 58.993zM381.635 426.088 256 300.453l-26.919 26.919-98.076 98.873c-.359-.056-1.021-.494-.814-1.352L255.052 85.991c.572-.112 1.319-.118 1.891-.006L381.635 426.088z"
      fill-opacity="1"
      fill="#F6AC41"
      stroke="#000000" 
      stroke-width="10"
      backgroudColor="FFF"
      borderRadius="50%"
    />
  </svg>
